<?xml version="1.0" encoding="UTF-8"?>
<svg xmlns="http://www.w3.org/2000/svg" xmlns:xlink="http://www.w3.org/1999/xlink" width="20px" height="20px" viewBox="0 0 20 20" version="1.1">
<g id="surface1">
<path style=" stroke:none;fill-rule:evenodd;fill:rgb(100%,100%,100%);fill-opacity:1;" d="M 14.765625 19.976562 C 14.765625 19.976562 14.152344 18.945312 13.636719 18.054688 C 15.878906 17.167969 16.734375 15.222656 16.734375 15.222656 C 16.035156 15.871094 15.367188 16.328125 14.765625 16.636719 C 13.910156 17.144531 13.089844 17.453125 12.285156 17.671875 C 10.640625 18.101562 9.136719 17.984375 7.851562 17.648438 C 6.875 17.382812 6.039062 17.023438 5.335938 16.613281 C 4.941406 16.398438 4.515625 16.132812 4.085938 15.796875 C 4.035156 15.75 3.984375 15.726562 3.933594 15.679688 C 3.898438 15.65625 3.882812 15.628906 3.863281 15.628906 C 3.554688 15.390625 3.382812 15.222656 3.382812 15.222656 C 3.382812 15.222656 4.207031 17.117188 6.378906 18.03125 C 5.867188 18.945312 5.234375 20 5.234375 20 C 1.449219 19.832031 0.0117188 16.375 0.0117188 16.375 C 0.0117188 8.714844 2.476562 2.496094 2.476562 2.496094 C 4.941406 -0.0703125 7.269531 0 7.269531 0 L 7.441406 0.289062 C 4.359375 1.511719 2.957031 3.410156 2.957031 3.410156 C 2.957031 3.410156 3.332031 3.121094 3.964844 2.738281 C 5.796875 1.609375 7.253906 1.320312 7.851562 1.226562 C 7.953125 1.199219 8.039062 1.175781 8.144531 1.175781 C 9.1875 0.984375 10.367188 0.9375 11.601562 1.128906 C 13.226562 1.394531 14.972656 2.066406 16.753906 3.410156 C 16.753906 3.410156 15.398438 1.609375 12.492188 0.382812 L 12.730469 0 C 12.730469 0 15.074219 -0.0703125 17.523438 2.496094 C 17.523438 2.496094 19.988281 8.714844 19.988281 16.375 C 19.988281 16.351562 18.550781 19.808594 14.765625 19.976562 Z M 13.054688 8.859375 C 12.078125 8.859375 11.308594 10.035156 11.308594 11.5 C 11.308594 12.964844 12.097656 14.140625 13.054688 14.140625 C 14.03125 14.140625 14.800781 12.964844 14.800781 11.5 C 14.800781 10.035156 14.015625 8.859375 13.054688 8.859375 Z M 6.808594 8.859375 C 5.832031 8.859375 5.0625 10.035156 5.0625 11.5 C 5.0625 12.964844 5.847656 14.140625 6.808594 14.140625 C 7.785156 14.140625 8.554688 12.964844 8.554688 11.5 C 8.570312 10.035156 7.785156 8.859375 6.808594 8.859375 Z M 6.808594 8.859375 "/>
</g>
</svg>
