<?xml version="1.0" encoding="UTF-8"?>
<svg xmlns="http://www.w3.org/2000/svg" xmlns:xlink="http://www.w3.org/1999/xlink" width="20px" height="20px" viewBox="0 0 20 20" version="1.1">
<g id="surface1">
<path style=" stroke:none;fill-rule:nonzero;fill:rgb(93.333334%,11.372549%,32.156864%);fill-opacity:1;" d="M 3.957031 12.671875 L 4.007812 12.808594 C 4 12.792969 3.980469 12.746094 3.957031 12.671875 Z M 5.878906 9.5625 C 5.964844 8.824219 6.253906 8.414062 6.800781 7.992188 C 7.582031 7.417969 8.558594 7.742188 8.558594 7.742188 L 8.558594 5.820312 C 8.792969 5.8125 9.03125 5.828125 9.265625 5.863281 L 9.265625 8.335938 C 9.265625 8.335938 8.292969 8.011719 7.511719 8.585938 C 6.964844 9.007812 6.675781 9.421875 6.589844 10.160156 C 6.585938 10.558594 6.65625 11.082031 6.988281 11.535156 C 6.90625 11.488281 6.824219 11.441406 6.738281 11.382812 C 6.007812 10.871094 5.875 10.105469 5.878906 9.5625 Z M 13.292969 2.265625 C 12.757812 1.652344 12.554688 1.03125 12.480469 0.597656 L 13.15625 0.597656 C 13.15625 0.597656 13.023438 1.738281 14.003906 2.863281 L 14.015625 2.875 C 13.753906 2.703125 13.511719 2.496094 13.292969 2.265625 Z M 16.550781 4.007812 L 16.550781 6.429688 C 16.550781 6.429688 15.6875 6.394531 15.050781 6.226562 C 14.15625 5.988281 13.585938 5.628906 13.585938 5.628906 C 13.585938 5.628906 13.1875 5.367188 13.15625 5.347656 L 13.15625 10.355469 C 13.15625 10.632812 13.082031 11.328125 12.863281 11.910156 C 12.570312 12.667969 12.121094 13.167969 12.039062 13.269531 C 12.039062 13.269531 11.492188 13.941406 10.527344 14.398438 C 9.660156 14.804688 8.894531 14.792969 8.667969 14.804688 C 8.667969 14.804688 7.347656 14.859375 6.160156 14.054688 C 5.90625 13.878906 5.667969 13.675781 5.445312 13.453125 L 5.453125 13.460938 C 6.640625 14.265625 7.957031 14.210938 7.957031 14.210938 C 8.1875 14.199219 8.949219 14.210938 9.820312 13.800781 C 10.78125 13.347656 11.328125 12.671875 11.328125 12.671875 C 11.410156 12.570312 11.863281 12.074219 12.152344 11.3125 C 12.375 10.730469 12.449219 10.035156 12.449219 9.757812 L 12.449219 4.753906 C 12.480469 4.773438 12.875 5.03125 12.875 5.03125 C 12.875 5.03125 13.449219 5.394531 14.339844 5.632812 C 14.976562 5.800781 15.839844 5.835938 15.839844 5.835938 L 15.839844 3.9375 C 16.136719 4.007812 16.386719 4.023438 16.550781 4.007812 Z M 16.550781 4.007812 "/>
<path style=" stroke:none;fill-rule:nonzero;fill:rgb(0%,0%,0%);fill-opacity:1;" d="M 15.839844 3.9375 L 15.839844 5.835938 C 15.839844 5.835938 14.976562 5.800781 14.339844 5.628906 C 13.449219 5.394531 12.875 5.03125 12.875 5.03125 C 12.875 5.03125 12.480469 4.769531 12.449219 4.753906 L 12.449219 9.757812 C 12.449219 10.035156 12.375 10.734375 12.152344 11.3125 C 11.859375 12.074219 11.410156 12.574219 11.328125 12.671875 C 11.328125 12.671875 10.78125 13.347656 9.820312 13.800781 C 8.949219 14.210938 8.1875 14.203125 7.957031 14.210938 C 7.957031 14.210938 6.640625 14.265625 5.453125 13.460938 L 5.445312 13.457031 C 5.324219 13.332031 5.207031 13.195312 5.09375 13.058594 C 4.714844 12.574219 4.480469 12.003906 4.425781 11.839844 C 4.332031 11.558594 4.132812 10.878906 4.160156 10.222656 C 4.207031 9.0625 4.597656 8.347656 4.703125 8.171875 C 4.976562 7.683594 5.332031 7.25 5.753906 6.886719 C 6.128906 6.574219 6.550781 6.320312 7.003906 6.144531 C 7.496094 5.941406 8.023438 5.828125 8.558594 5.820312 L 8.558594 7.742188 C 8.558594 7.742188 7.582031 7.417969 6.800781 7.992188 C 6.253906 8.414062 5.964844 8.824219 5.878906 9.5625 C 5.875 10.105469 6.007812 10.871094 6.738281 11.382812 C 6.824219 11.441406 6.90625 11.492188 6.988281 11.535156 C 7.117188 11.707031 7.273438 11.859375 7.449219 11.980469 C 8.160156 12.449219 8.757812 12.484375 9.519531 12.175781 C 10.03125 11.972656 10.414062 11.511719 10.589844 11.003906 C 10.703125 10.683594 10.703125 10.363281 10.703125 10.03125 L 10.703125 0.597656 L 12.476562 0.597656 C 12.550781 1.03125 12.757812 1.652344 13.292969 2.265625 C 13.507812 2.496094 13.75 2.703125 14.015625 2.875 C 14.09375 2.960938 14.496094 3.378906 15.007812 3.636719 C 15.273438 3.765625 15.550781 3.871094 15.839844 3.9375 Z M 15.839844 3.9375 "/>
<path style=" stroke:none;fill-rule:nonzero;fill:rgb(41.176471%,78.823531%,81.568629%);fill-opacity:1;" d="M 3.71875 11.253906 L 3.761719 11.378906 C 3.757812 11.363281 3.738281 11.316406 3.71875 11.253906 Z M 3.71875 11.253906 "/>
<path style=" stroke:none;fill-rule:nonzero;fill:rgb(41.176471%,78.823531%,81.568629%);fill-opacity:1;" d="M 7.003906 6.144531 C 6.550781 6.320312 6.128906 6.574219 5.753906 6.886719 C 5.332031 7.25 4.976562 7.6875 4.703125 8.175781 C 4.597656 8.351562 4.207031 9.066406 4.160156 10.222656 C 4.132812 10.882812 4.332031 11.558594 4.425781 11.84375 C 4.484375 12.003906 4.714844 12.574219 5.09375 13.058594 C 5.207031 13.199219 5.324219 13.332031 5.445312 13.460938 C 5.046875 13.179688 4.6875 12.84375 4.386719 12.464844 C 4.007812 11.984375 3.777344 11.421875 3.71875 11.253906 L 3.71875 11.25 C 3.621094 10.964844 3.425781 10.289062 3.453125 9.628906 C 3.5 8.46875 3.890625 7.757812 3.996094 7.582031 C 4.269531 7.09375 4.625 6.65625 5.046875 6.292969 C 5.417969 5.976562 5.84375 5.726562 6.296875 5.550781 C 6.582031 5.433594 6.878906 5.347656 7.179688 5.292969 C 7.632812 5.210938 8.101562 5.207031 8.558594 5.269531 L 8.558594 5.820312 C 8.023438 5.828125 7.496094 5.941406 7.003906 6.144531 Z M 7.003906 6.144531 "/>
<path style=" stroke:none;fill-rule:nonzero;fill:rgb(41.176471%,78.823531%,81.568629%);fill-opacity:1;" d="M 12.480469 0.597656 L 10.703125 0.597656 L 10.703125 10.03125 C 10.703125 10.363281 10.703125 10.683594 10.59375 11.003906 C 10.414062 11.511719 10.03125 11.972656 9.523438 12.175781 C 8.761719 12.484375 8.160156 12.449219 7.449219 11.980469 C 7.273438 11.859375 7.117188 11.707031 6.988281 11.535156 C 7.597656 11.859375 8.140625 11.851562 8.8125 11.585938 C 9.320312 11.378906 9.703125 10.917969 9.882812 10.40625 C 9.996094 10.089844 9.992188 9.769531 9.992188 9.4375 L 9.992188 0 L 12.445312 0 C 12.445312 0 12.417969 0.234375 12.480469 0.597656 Z M 15.839844 3.410156 L 15.839844 3.9375 C 15.550781 3.867188 15.273438 3.765625 15.007812 3.636719 C 14.496094 3.378906 14.09375 2.960938 14.015625 2.875 C 14.109375 2.9375 14.203125 2.992188 14.300781 3.039062 C 14.925781 3.347656 15.535156 3.441406 15.839844 3.410156 Z M 15.839844 3.410156 "/>
<path style=" stroke:none;fill-rule:nonzero;fill:rgb(41.176471%,78.823531%,81.568629%);fill-opacity:1;" d="M 12.542969 18.488281 C 12.542969 18.558594 12.550781 18.621094 12.570312 18.6875 C 12.574219 18.695312 12.574219 18.699219 12.574219 18.699219 C 12.671875 19.015625 12.964844 19.230469 13.292969 19.230469 L 13.292969 19.988281 C 12.921875 19.988281 12.660156 20 12.253906 19.761719 C 11.796875 19.488281 11.539062 18.996094 11.539062 18.480469 C 11.539062 17.949219 11.828125 17.417969 12.316406 17.160156 C 12.671875 16.972656 12.941406 16.972656 13.292969 16.972656 L 13.292969 17.730469 C 12.878906 17.730469 12.542969 18.066406 12.542969 18.480469 Z M 12.542969 18.488281 "/>
<path style=" stroke:none;fill-rule:nonzero;fill:rgb(93.333334%,11.372549%,32.156864%);fill-opacity:1;" d="M 14.046875 18.488281 C 14.046875 18.558594 14.035156 18.621094 14.015625 18.6875 C 14.015625 18.695312 14.011719 18.695312 14.011719 18.699219 C 13.917969 19.015625 13.625 19.230469 13.296875 19.230469 L 13.296875 19.988281 C 13.664062 19.988281 13.929688 20 14.332031 19.761719 C 14.789062 19.488281 15.050781 18.996094 15.050781 18.480469 C 15.050781 17.949219 14.761719 17.417969 14.273438 17.160156 C 13.917969 16.972656 13.648438 16.972656 13.296875 16.972656 L 13.296875 17.730469 C 13.710938 17.730469 14.046875 18.066406 14.046875 18.480469 Z M 14.046875 18.488281 "/>
<path style=" stroke:none;fill-rule:nonzero;fill:rgb(0%,0%,0%);fill-opacity:1;" d="M 1.691406 16.285156 L 4.46875 16.285156 L 4.210938 17.046875 L 3.484375 17.046875 L 3.484375 19.972656 L 2.589844 19.972656 L 2.589844 17.046875 L 1.691406 17.046875 Z M 9.046875 16.285156 L 9.046875 17.046875 L 9.945312 17.046875 L 9.945312 19.972656 L 10.839844 19.972656 L 10.839844 17.046875 L 11.566406 17.046875 L 11.824219 16.285156 Z M 5.070312 17.15625 C 5.308594 17.15625 5.503906 16.960938 5.503906 16.722656 C 5.503906 16.484375 5.308594 16.292969 5.070312 16.292969 C 4.832031 16.292969 4.636719 16.484375 4.636719 16.722656 C 4.636719 16.839844 4.683594 16.949219 4.765625 17.027344 C 4.847656 17.109375 4.957031 17.15625 5.070312 17.15625 Z M 4.636719 19.972656 L 5.515625 19.972656 L 5.515625 17.460938 L 4.636719 17.460938 Z M 8.667969 17.132812 L 7.640625 17.132812 L 6.757812 18.019531 L 6.757812 16.289062 L 5.886719 16.289062 L 5.886719 19.972656 L 6.765625 19.972656 L 6.765625 19.011719 L 7.039062 18.761719 L 7.890625 19.972656 L 8.832031 19.972656 L 7.59375 18.203125 Z M 17.070312 18.207031 L 18.140625 17.132812 L 17.117188 17.132812 L 16.234375 18.019531 L 16.234375 16.289062 L 15.363281 16.289062 L 15.359375 19.972656 L 16.238281 19.972656 L 16.238281 19.011719 L 16.515625 18.761719 L 17.367188 19.972656 L 18.308594 19.972656 Z M 14.820312 18.480469 C 14.820312 19.3125 14.132812 19.984375 13.292969 19.984375 C 12.445312 19.984375 11.761719 19.3125 11.761719 18.480469 C 11.761719 17.644531 12.445312 16.972656 13.292969 16.972656 C 14.132812 16.972656 14.820312 17.644531 14.820312 18.480469 Z M 14.039062 18.480469 C 14.039062 18.066406 13.703125 17.730469 13.292969 17.730469 C 12.875 17.730469 12.542969 18.066406 12.542969 18.480469 C 12.542969 18.894531 12.875 19.230469 13.292969 19.230469 C 13.703125 19.230469 14.039062 18.894531 14.039062 18.480469 Z M 14.039062 18.480469 "/>
</g>
</svg>
